<svg width="132" height="33" viewBox="0 0 132 33" fill="none" xmlns="http://www.w3.org/2000/svg">
<path fill-rule="evenodd" clip-rule="evenodd" d="M15.1998 29.2943L15.9822 27.9402C16.1485 27.6523 16.4363 27.4858 16.769 27.4858H18.3293C18.662 27.4858 18.9498 27.6523 19.1162 27.9402L19.8985 29.2943C20.0649 29.5822 20.0649 29.9152 19.8985 30.2031L19.1162 31.5572C18.9498 31.8451 18.662 32.0116 18.3293 32.0116H16.769C16.4363 32.0116 16.1485 31.8451 15.9822 31.5572L15.1998 30.2031C15.0334 29.9152 15.0334 29.5822 15.1998 29.2943Z" fill="#A801FF"/>
<path fill-rule="evenodd" clip-rule="evenodd" d="M15.1998 23.9769L15.9822 22.6228C16.1485 22.3348 16.4363 22.1684 16.769 22.1684H18.3293C18.662 22.1684 18.9498 22.3348 19.1162 22.6228L19.8985 23.9769C20.0649 24.2648 20.0649 24.5977 19.8985 24.8856L19.1162 26.2353C18.9498 26.5232 18.662 26.6896 18.3293 26.6896H16.769C16.4363 26.6896 16.1485 26.5232 15.9822 26.2353L15.1998 24.8856C15.0334 24.5977 15.0334 24.2693 15.1998 23.9769Z" fill="#A801FF"/>
<path fill-rule="evenodd" clip-rule="evenodd" d="M15.1998 8.11478L15.9822 6.7607C16.1485 6.47279 16.4363 6.30634 16.769 6.30634H18.3293C18.662 6.30634 18.9498 6.47279 19.1162 6.7607L19.8985 8.11478C20.0649 8.40271 20.0649 8.73568 19.8985 9.0236L19.1117 10.3732C18.9453 10.6611 18.6576 10.8275 18.3248 10.8275H16.7645C16.4318 10.8275 16.144 10.6611 15.9776 10.3732L15.1998 9.0236C15.0334 8.73568 15.0334 8.40271 15.1998 8.11478Z" fill="#A801FF"/>
<path fill-rule="evenodd" clip-rule="evenodd" d="M15.1998 2.79683L15.9822 1.44271C16.1485 1.15479 16.4363 0.988342 16.769 0.988342H18.3293C18.662 0.988342 18.9498 1.15479 19.1162 1.44271L19.8985 2.79683C20.0649 3.08475 20.0649 3.41765 19.8985 3.70558L19.1162 5.05969C18.9498 5.34762 18.662 5.51407 18.3293 5.51407H16.769C16.4363 5.51407 16.1485 5.34762 15.9822 5.05969L15.1998 3.70558C15.0334 3.41765 15.0334 3.08925 15.1998 2.79683Z" fill="#A801FF"/>
<path fill-rule="evenodd" clip-rule="evenodd" d="M10.7129 26.7528L11.4323 25.5066C11.5852 25.2412 11.8505 25.0882 12.1563 25.0882H13.5951C13.9009 25.0882 14.1662 25.2412 14.3191 25.5066L15.0385 26.7528C15.1914 27.0182 15.1914 27.3241 15.0385 27.5895L14.3191 28.8357C14.1662 29.1011 13.9009 29.254 13.5951 29.254H12.1563C11.8505 29.254 11.5852 29.1011 11.4323 28.8357L10.7129 27.5895C10.56 27.3241 10.56 27.0182 10.7129 26.7528Z" fill="#A801FF"/>
<path fill-rule="evenodd" clip-rule="evenodd" d="M10.7129 5.57262L11.4323 4.32646C11.5852 4.06104 11.8505 3.90808 12.1563 3.90808H13.5951C13.9009 3.90808 14.1662 4.06104 14.3191 4.32646L15.0385 5.57262C15.1914 5.83804 15.1914 6.14396 15.0385 6.40939L14.3191 7.65554C14.1662 7.92095 13.9009 8.07393 13.5951 8.07393H12.1563C11.8505 8.07393 11.5852 7.92095 11.4323 7.65554L10.7129 6.40939C10.56 6.14396 10.56 5.84254 10.7129 5.57262Z" fill="#A801FF"/>
<path fill-rule="evenodd" clip-rule="evenodd" d="M6.40033 24.2376L6.98038 23.2343C7.10627 23.0184 7.31761 22.897 7.56492 22.897H8.725C8.97233 22.897 9.18362 23.0184 9.30951 23.2343L9.88957 24.2376C10.0155 24.4535 10.0155 24.6965 9.88957 24.9124L9.30951 25.9156C9.18362 26.1316 8.97233 26.253 8.725 26.253H7.56492C7.31761 26.253 7.10627 26.1316 6.98038 25.9156L6.40033 24.9124C6.27443 24.6965 6.27443 24.449 6.40033 24.2376Z" fill="#A801FF"/>
<path fill-rule="evenodd" clip-rule="evenodd" d="M6.2831 18.898L6.89912 17.8274C7.02952 17.5979 7.25883 17.4674 7.51963 17.4674H8.75619C9.02143 17.4674 9.24624 17.5979 9.37667 17.8274L9.9927 18.898C10.1231 19.1275 10.1231 19.3884 9.9927 19.6179L9.37667 20.6885C9.24624 20.918 9.01697 21.0484 8.75619 21.0484H7.51963C7.25434 21.0484 7.02952 20.918 6.89912 20.6885L6.2831 19.6179C6.1527 19.3884 6.1527 19.1275 6.2831 18.898Z" fill="#A801FF"/>
<path fill-rule="evenodd" clip-rule="evenodd" d="M6.2831 13.6252L6.89912 12.5544C7.02952 12.325 7.25883 12.1945 7.51963 12.1945H8.75619C9.02143 12.1945 9.24624 12.325 9.37667 12.5544L9.9927 13.6252C10.1231 13.8546 10.1231 14.1155 9.9927 14.3449L9.37667 15.4157C9.24624 15.6451 9.01697 15.7755 8.75619 15.7755H7.51963C7.25434 15.7755 7.02952 15.6451 6.89912 15.4157L6.2831 14.3449C6.1527 14.1155 6.1527 13.8501 6.2831 13.6252Z" fill="#A801FF"/>
<path fill-rule="evenodd" clip-rule="evenodd" d="M6.40033 8.3304L6.98038 7.32715C7.10627 7.11121 7.31761 6.98975 7.56492 6.98975H8.725C8.97233 6.98975 9.18362 7.11121 9.30951 7.32715L9.88957 8.3304C10.0155 8.54631 10.0155 8.78927 9.88957 9.00517L9.30951 10.0085C9.18362 10.2244 8.97233 10.3458 8.725 10.3458H7.56492C7.31761 10.3458 7.10627 10.2244 6.98038 10.0085L6.40033 9.00517C6.27443 8.78927 6.27443 8.54631 6.40033 8.3304Z" fill="#A801FF"/>
<path fill-rule="evenodd" clip-rule="evenodd" d="M3.06939 21.8222L3.37965 21.2868C3.44709 21.1743 3.5595 21.1068 3.68989 21.1068H4.31041C4.44081 21.1068 4.55771 21.1743 4.62067 21.2868L4.93093 21.8222C4.99837 21.9346 4.99837 22.0696 4.93093 22.182L4.62067 22.7174C4.55322 22.8298 4.44081 22.8973 4.31041 22.8973H3.68989C3.5595 22.8973 3.44259 22.8298 3.37965 22.7174L3.06939 22.182C3.00194 22.065 3.00194 21.9346 3.06939 21.8222Z" fill="#A801FF"/>
<path fill-rule="evenodd" clip-rule="evenodd" d="M2.58726 16.4549L3.05489 15.6406C3.15381 15.4651 3.32917 15.3662 3.52701 15.3662H4.46678C4.66912 15.3662 4.83998 15.4651 4.9389 15.6406L5.40654 16.4549C5.50546 16.6303 5.50546 16.8283 5.40654 16.9992L4.9389 17.8135C4.83998 17.989 4.66462 18.0879 4.46678 18.0879H3.52701C3.32467 18.0879 3.15381 17.989 3.05489 17.8135L2.58726 16.9992C2.48833 16.8237 2.48833 16.6258 2.58726 16.4549Z" fill="#A801FF"/>
<path fill-rule="evenodd" clip-rule="evenodd" d="M3.06939 11.2322L3.37965 10.6969C3.44709 10.5844 3.5595 10.5169 3.68989 10.5169H4.31041C4.44081 10.5169 4.55771 10.5844 4.62067 10.6969L4.93093 11.2322C4.99837 11.3447 4.99837 11.4797 4.93093 11.5922L4.62067 12.1275C4.55322 12.24 4.44081 12.3074 4.31041 12.3074H3.68989C3.5595 12.3074 3.44259 12.24 3.37965 12.1275L3.06939 11.5922C3.00194 11.4752 3.00194 11.3447 3.06939 11.2322Z" fill="#A801FF"/>
<path fill-rule="evenodd" clip-rule="evenodd" d="M24.3584 26.7528L23.639 25.5066C23.4862 25.2412 23.2208 25.0882 22.9151 25.0882H21.4762C21.1705 25.0882 20.9051 25.2412 20.7523 25.5066L20.0329 26.7528C19.88 27.0182 19.88 27.3241 20.0329 27.5895L20.7523 28.8357C20.9051 29.1011 21.1705 29.254 21.4762 29.254H22.9151C23.2208 29.254 23.4862 29.1011 23.639 28.8357L24.3584 27.5895C24.5113 27.3241 24.5113 27.0182 24.3584 26.7528Z" fill="#A801FF"/>
<path fill-rule="evenodd" clip-rule="evenodd" d="M24.3584 5.57262L23.639 4.32646C23.4862 4.06104 23.2208 3.90808 22.9151 3.90808H21.4762C21.1705 3.90808 20.9051 4.06104 20.7523 4.32646L20.0329 5.57262C19.88 5.83804 19.88 6.14396 20.0329 6.40939L20.7523 7.65554C20.9051 7.92095 21.1705 8.07393 21.4762 8.07393H22.9151C23.2208 8.07393 23.4862 7.92095 23.639 7.65554L24.3584 6.40939C24.5113 6.14396 24.5113 5.84254 24.3584 5.57262Z" fill="#A801FF"/>
<path fill-rule="evenodd" clip-rule="evenodd" d="M28.6666 24.2376L28.0866 23.2343C27.9607 23.0184 27.7493 22.897 27.5021 22.897H26.3419C26.0946 22.897 25.8833 23.0184 25.7574 23.2343L25.1774 24.2376C25.0515 24.4535 25.0515 24.6965 25.1774 24.9124L25.7574 25.9156C25.8833 26.1316 26.0946 26.253 26.3419 26.253H27.5021C27.7493 26.253 27.9607 26.1316 28.0866 25.9156L28.6666 24.9124C28.7925 24.6965 28.7925 24.449 28.6666 24.2376Z" fill="#A801FF"/>
<path fill-rule="evenodd" clip-rule="evenodd" d="M28.7828 18.898L28.1668 17.8274C28.0364 17.5979 27.807 17.4674 27.5462 17.4674H26.3097C26.0444 17.4674 25.8196 17.5979 25.6893 17.8274L25.0732 18.898C24.9428 19.1275 24.9428 19.3884 25.0732 19.6179L25.6893 20.6885C25.8196 20.918 26.049 21.0484 26.3097 21.0484H27.5462C27.8116 21.0484 28.0364 20.918 28.1668 20.6885L28.7828 19.6179C28.9132 19.3884 28.9132 19.1275 28.7828 18.898Z" fill="#A801FF"/>
<path fill-rule="evenodd" clip-rule="evenodd" d="M28.7828 13.6252L28.1668 12.5544C28.0364 12.325 27.807 12.1945 27.5462 12.1945H26.3097C26.0444 12.1945 25.8196 12.325 25.6893 12.5544L25.0732 13.6252C24.9428 13.8546 24.9428 14.1155 25.0732 14.3449L25.6893 15.4157C25.8196 15.6451 26.049 15.7755 26.3097 15.7755H27.5462C27.8116 15.7755 28.0364 15.6451 28.1668 15.4157L28.7828 14.3449C28.9132 14.1155 28.9132 13.8501 28.7828 13.6252Z" fill="#A801FF"/>
<path fill-rule="evenodd" clip-rule="evenodd" d="M28.6666 8.3304L28.0866 7.32715C27.9607 7.11121 27.7493 6.98975 27.5021 6.98975H26.3419C26.0946 6.98975 25.8833 7.11121 25.7574 7.32715L25.1774 8.3304C25.0515 8.54631 25.0515 8.78927 25.1774 9.00517L25.7574 10.0085C25.8833 10.2244 26.0946 10.3458 26.3419 10.3458H27.5021C27.7493 10.3458 27.9607 10.2244 28.0866 10.0085L28.6666 9.00517C28.7925 8.78927 28.7925 8.54631 28.6666 8.3304Z" fill="#A801FF"/>
<path fill-rule="evenodd" clip-rule="evenodd" d="M31.9987 21.8222L31.6884 21.2868C31.6209 21.1743 31.5086 21.1068 31.3781 21.1068H30.7576C30.6272 21.1068 30.5103 21.1743 30.4474 21.2868L30.1372 21.8222C30.0697 21.9346 30.0697 22.0696 30.1372 22.182L30.4474 22.7174C30.5148 22.8298 30.6272 22.8973 30.7576 22.8973H31.3781C31.5086 22.8973 31.6255 22.8298 31.6884 22.7174L31.9987 22.182C32.0661 22.065 32.0661 21.9346 31.9987 21.8222Z" fill="#A801FF"/>
<path fill-rule="evenodd" clip-rule="evenodd" d="M32.4787 16.4549L32.0111 15.6406C31.9121 15.4651 31.7367 15.3662 31.5389 15.3662H30.5991C30.3968 15.3662 30.2259 15.4651 30.127 15.6406L29.6594 16.4549C29.5605 16.6303 29.5605 16.8283 29.6594 16.9992L30.127 17.8135C30.2259 17.989 30.4013 18.0879 30.5991 18.0879H31.5389C31.7412 18.0879 31.9121 17.989 32.0111 17.8135L32.4787 16.9992C32.582 16.8237 32.582 16.6258 32.4787 16.4549Z" fill="#A801FF"/>
<path fill-rule="evenodd" clip-rule="evenodd" d="M31.9987 11.2322L31.6884 10.6969C31.6209 10.5844 31.5086 10.5169 31.3781 10.5169H30.7576C30.6272 10.5169 30.5103 10.5844 30.4474 10.6969L30.1372 11.2322C30.0697 11.3447 30.0697 11.4797 30.1372 11.5922L30.4474 12.1275C30.5148 12.24 30.6272 12.3074 30.7576 12.3074H31.3781C31.5086 12.3074 31.6255 12.24 31.6884 12.1275L31.9987 11.5922C32.0661 11.4752 32.0661 11.3447 31.9987 11.2322Z" fill="#A801FF"/>
<path fill-rule="evenodd" clip-rule="evenodd" d="M15.713 19.316L16.3244 18.2588C16.4549 18.0339 16.6797 17.9035 16.9405 17.9035H18.159C18.4199 17.9035 18.6447 18.0339 18.775 18.2588L19.3866 19.316C19.5169 19.5409 19.5169 19.8019 19.3866 20.0269L18.7706 21.0796C18.6401 21.3045 18.4153 21.435 18.1545 21.435H16.936C16.6752 21.435 16.4503 21.3045 16.32 21.0796L15.7085 20.0223C15.5825 19.7974 15.5825 19.5409 15.713 19.316Z" fill="#A801FF"/>
<path fill-rule="evenodd" clip-rule="evenodd" d="M15.713 12.9729L16.3244 11.9157C16.4549 11.6908 16.6797 11.5603 16.9405 11.5603H18.159C18.4199 11.5603 18.6447 11.6908 18.775 11.9157L19.3866 12.9729C19.5169 13.1978 19.5169 13.4588 19.3866 13.6837L18.7706 14.7364C18.6401 14.9613 18.4153 15.0918 18.1545 15.0918H16.936C16.6752 15.0918 16.4503 14.9613 16.32 14.7364L15.7085 13.6792C15.5825 13.4543 15.5825 13.1978 15.713 12.9729Z" fill="#A801FF"/>
<path d="M119.381 10.8273V21.9648H116.668V10.8273H119.381Z" fill="#323537"/>
<path d="M114.987 13.0423V11.0134H105.625V13.0423H109.011V21.7833H111.601V13.0423H114.987ZM94.968 21.7833V11.0134H91.965L88.5206 19.4665L85.5168 11.0134H82.3603V21.7833H84.95V17.775L84.7842 15.2197L86.996 21.7833H89.8918L92.455 15.4042L92.3783 17.7795V21.7879H94.968V21.7833ZM77.8817 16.3849C77.8817 18.4004 77.0454 19.9254 74.6668 19.9254C72.4725 19.9254 71.6047 18.3239 71.6047 16.3579C71.6047 14.3739 72.4905 12.8804 74.7747 12.8804C76.951 12.8759 77.8817 14.3695 77.8817 16.3849ZM80.5167 16.3984C80.5167 13.0289 78.826 10.8289 74.9051 10.8289C71.2315 10.8289 68.9743 12.7184 68.9743 16.3669C68.9743 19.8309 70.8358 21.9634 74.6128 21.9634C78.4573 21.9678 80.5167 19.9839 80.5167 16.3984ZM68.8079 21.7833L65.1793 16.2229L68.8079 11.0134H65.9121L63.8078 14.32L61.8564 11.0134H58.8842L62.315 16.2679L58.457 21.7833H61.3528L63.6685 18.1574L65.8178 21.7833H68.8079ZM57.6027 21.7833V19.7544H52.7691V17.3161H56.9148V15.4266H52.7691V13.0468H57.252V11.0179H50.1791V21.7879H57.6027V21.7833ZM47.8004 21.7833V11.0134H45.2105V15.3771H40.6376V11.0134H38.0476V21.7833H40.6376V17.3431H45.2105V21.7833H47.8004Z" fill="#323537"/>
<path d="M129.486 19.2082V21.2645C128.447 21.6532 127.432 21.847 126.439 21.847C124.802 21.847 123.497 21.3593 122.523 20.3839C121.549 19.4085 121.062 18.1022 121.062 16.4649C121.062 14.8123 121.535 13.4787 122.483 12.4652C123.431 11.4517 124.677 10.9455 126.223 10.9455C126.761 10.9455 127.245 10.9967 127.672 11.1C128.1 11.2024 128.628 11.3951 129.258 11.6771V13.8935C128.211 13.2229 127.242 12.8876 126.348 12.8876C125.415 12.8876 124.649 13.2174 124.051 13.8761C123.452 14.5347 123.153 15.3751 123.153 16.3962C123.153 17.4707 123.477 18.3242 124.126 18.9556C124.774 19.5881 125.647 19.9038 126.747 19.9038C127.542 19.9049 128.457 19.673 129.486 19.2082Z" fill="#323537"/>
<path d="M103.271 11.0997H100.519L96.8341 21.6931H99.3223L100.055 19.3362H103.844L104.538 21.6931H107.099L103.271 11.0997ZM100.596 17.6031L100.624 17.5095L102.003 13.0832L103.311 17.5237L103.335 17.6031H100.596Z" fill="#323537"/>
</svg>
